<svg width="34" height="34" viewBox="0 0 34 34" fill="none" xmlns="http://www.w3.org/2000/svg">
<path d="M9.43531 21.1337C6.49351 24.7396 5.13882 27.6946 5.82281 29.0161C6.34742 30.0189 9.58804 31.9778 11.972 32.7282C13.9376 33.3458 16.5142 33.6114 18.6392 33.4056C21.1759 33.1599 23.7459 32.2501 25.9505 30.8157C27.8033 29.6071 28.2216 29.1091 28.2216 28.1196C28.2216 26.1341 26.0369 22.6544 22.2982 18.6833C20.1732 16.4321 17.2181 13.7892 16.8927 13.8622C16.2685 14.0017 11.2947 18.8493 9.43531 21.1337ZM21.4748 9.55245C23.447 7.76613 25.333 5.97316 27.2123 5.3423C28.2216 5.00363 28.2947 5.02355 29.1181 5.88019C31.0572 7.89894 32.6709 11.1728 33.1224 14.0083C33.481 16.2794 33.5275 16.9169 33.4013 18.0259C33.0294 21.3794 32.2525 23.697 30.7119 26.0544C30.081 27.0239 29.9084 27.2032 30.0943 26.7118C30.3732 25.9814 30.1142 24.2216 29.4634 22.4618C28.5138 19.872 25.8841 14.9646 21.4748 9.55245ZM0.78257 13.7693C1.90484 8.45675 5.26499 5.11652 5.73648 5.11652C6.22124 5.11652 7.34351 5.54816 8.1271 6.03956C9.67437 7.00245 10.8498 8.12472 12.397 9.54581C9.5814 13.0853 5.61031 18.8028 4.23569 22.9798C3.78413 24.3544 3.59155 25.7091 3.74429 26.4528C3.85718 27.0173 3.85718 27.0173 3.65132 26.7583C3.24624 26.247 2.32984 24.6798 1.9646 23.8696C1.4732 22.7939 0.96851 21.2001 0.729446 19.9716C0.443901 18.4775 0.470463 15.27 0.78257 13.7693ZM24.6158 2.8587C21.4482 2.69269 17.331 5.14972 17.0255 5.20949C16.9791 5.21613 16.3349 4.93058 15.5912 4.56535C11.3478 2.50011 9.34898 2.85206 8.45913 2.89191C12.7025 0.282142 18.5994 -0.428405 23.9916 2.11495C25.5455 2.85206 25.5853 2.90519 24.6158 2.8587Z" fill="url(#paint0_linear_1482_700)"/>
<defs>
<linearGradient id="paint0_linear_1482_700" x1="16.9979" y1="0.53125" x2="17" y2="24.5026" gradientUnits="userSpaceOnUse">
<stop stop-color="#EB4337"/>
<stop offset="1" stop-color="white"/>
</linearGradient>
</defs>
</svg>
