<svg width="59" height="46" viewBox="0 0 59 46" fill="none" xmlns="http://www.w3.org/2000/svg">
<path d="M21.8627 21.3307L21.8712 42.2744L26.5979 43.7747L31.3246 45.275L31.3392 27.4497C31.3574 10.6197 31.3598 9.60979 31.4072 9.3743C31.4776 9.03078 31.5395 8.83414 31.6329 8.61929C31.9582 7.89705 32.5203 7.59723 33.2037 7.7878C34.2051 8.06335 34.7804 8.79165 34.9916 10.0492C35.0888 10.6331 35.0972 11.2291 35.0972 18.3373V25.408L35.3764 25.5403C35.9846 25.8219 36.7918 26.1072 37.4254 26.2565C41.3777 27.1875 44.314 25.2987 45.2996 21.1947C45.5752 20.044 45.6905 18.8047 45.6553 17.2922C45.6079 15.1692 45.3737 13.5426 44.9063 12.1188C44.1695 9.85498 42.8367 8.11433 40.7635 6.70505C39.001 5.5082 36.9605 4.59782 33.6601 3.53813C29.5172 2.20775 25.4654 1.10073 22.6262 0.522934C22.2645 0.450104 21.9416 0.390625 21.9125 0.390625C21.8566 0.390625 21.8566 0.771772 21.8627 21.3307ZM14.9571 27.4825C12.1701 28.4717 9.1258 29.5557 8.18871 29.8871C5.72582 30.7623 5.48426 30.8497 4.9004 31.0876C3.23015 31.7661 1.80024 32.5357 1.03309 33.1693C0.753903 33.4012 0.501423 33.7156 0.348478 34.0239C0.157904 34.405 0.119061 34.5907 0.133627 35.0374C0.145766 35.3518 0.160332 35.4392 0.236804 35.6456C0.404315 36.1068 0.750261 36.5827 1.20909 36.9844C1.84272 37.5392 2.97403 38.1182 4.07741 38.4581C4.27163 38.5163 4.63578 38.6316 4.88462 38.7081C9.61134 40.1939 14.4716 40.5313 19.3597 39.712L20.0201 39.6003L20.0286 37.1277C20.031 35.7451 20.0225 34.6551 20.0079 34.6551C19.9958 34.6551 19.509 34.8287 18.93 35.0399C14.8491 36.5256 14.7083 36.5693 13.8537 36.7223C12.1131 37.0366 10.2656 36.9456 9.36129 36.505C8.82719 36.2464 8.67425 35.9587 8.87696 35.6067C9.02626 35.3421 9.40863 35.0641 9.90509 34.8554C10.0253 34.8056 12.351 33.968 15.0664 32.9933C17.7854 32.021 20.0164 31.2199 20.0225 31.2114C20.0286 31.2053 20.031 29.9575 20.0286 28.4402L20.0201 25.6799L14.9571 27.4825ZM42.4095 28.0954C39.6285 28.2484 36.4665 28.8359 33.83 29.6844L33.1308 29.9101V32.7675C33.1308 34.5968 33.1393 35.6249 33.16 35.6249C33.1867 35.6249 34.1881 35.2729 40.1481 33.173C43.4424 32.0101 43.5869 31.9603 44.0093 31.8523C46.159 31.2891 48.8453 31.4238 49.6173 32.1339C49.8406 32.3391 49.8904 32.5272 49.7787 32.7481C49.6403 33.0188 49.3527 33.247 48.8659 33.4789C48.6984 33.5578 47.3389 34.0603 45.8446 34.5919C44.3504 35.126 41.9543 35.9782 40.5159 36.4916C36.1557 38.0453 33.2376 39.0844 33.1842 39.105C33.1345 39.1257 33.1308 39.2847 33.1308 41.886C33.1308 44.5018 33.1332 44.6462 33.1842 44.6256C33.2425 44.6025 41.3231 41.7015 50.995 38.2274C52.6398 37.6339 54.1716 37.0706 54.401 36.9735C55.6574 36.4334 56.8117 35.7172 57.4405 35.0945C58.0207 34.5167 58.2647 34.0057 58.2647 33.3781C58.2647 32.7081 58.0147 32.1982 57.3956 31.6047C56.8676 31.0936 55.9244 30.5365 54.9473 30.1541C54.4423 29.9575 52.7951 29.3943 52.2756 29.2413C50.3347 28.672 48.3585 28.3309 45.875 28.1343C45.4926 28.1039 42.8027 28.0748 42.4095 28.0954Z" fill="url(#paint0_linear_919_13215)"/>
<defs>
<linearGradient id="paint0_linear_919_13215" x1="29.198" y1="0.390625" x2="29.198" y2="45.275" gradientUnits="userSpaceOnUse">
<stop stop-color="#8D8D8D"/>
<stop offset="0.659" stop-color="white"/>
<stop offset="1" stop-color="white"/>
</linearGradient>
</defs>
</svg>
