<svg width="38" height="30" viewBox="0 0 38 30" fill="none" xmlns="http://www.w3.org/2000/svg">
<path d="M14.2594 13.8289L14.2649 27.4883L17.3477 28.4668L20.4304 29.4453L20.4399 17.8197C20.4518 6.84325 20.4534 6.18458 20.4842 6.031C20.5302 5.80696 20.5705 5.67871 20.6315 5.53858C20.8437 5.06754 21.2102 4.872 21.6559 4.99629C22.309 5.176 22.6843 5.651 22.822 6.47117C22.8854 6.85196 22.8909 7.24067 22.8909 11.8767V16.4881L23.073 16.5744C23.4696 16.7581 23.9961 16.9441 24.4093 17.0415C26.987 17.6487 28.902 16.4169 29.5449 13.7402C29.7246 12.9897 29.7998 12.1815 29.7768 11.195C29.7459 9.81042 29.5932 8.74958 29.2884 7.82096C28.8078 6.3445 27.9386 5.20925 26.5864 4.29012C25.4369 3.50954 24.1061 2.91579 21.9536 2.22467C19.2516 1.357 16.609 0.635 14.7573 0.258167C14.5214 0.210667 14.3108 0.171875 14.2918 0.171875C14.2554 0.171875 14.2554 0.420457 14.2594 13.8289ZM9.75557 17.8411C7.93791 18.4863 5.95241 19.1932 5.34124 19.4094C3.73495 19.9802 3.57741 20.0372 3.19662 20.1923C2.10728 20.6349 1.1747 21.1368 0.674368 21.55C0.492284 21.7013 0.327618 21.9063 0.227868 22.1074C0.103576 22.356 0.0782427 22.4771 0.0877427 22.7684C0.0956594 22.9735 0.105159 23.0305 0.155034 23.165C0.264284 23.4659 0.489909 23.7762 0.789159 24.0382C1.20241 24.4 1.94024 24.7777 2.65987 24.9993C2.78653 25.0373 3.02403 25.1125 3.18633 25.1624C6.26908 26.1314 9.43891 26.3515 12.6269 25.8171L13.0576 25.7443L13.0632 24.1317C13.0647 23.23 13.0592 22.519 13.0497 22.519C13.0418 22.519 12.7243 22.6322 12.3467 22.77C9.68512 23.739 9.59328 23.7675 9.03595 23.8672C7.9007 24.0723 6.69578 24.0129 6.10599 23.7255C5.75766 23.5569 5.65791 23.3693 5.79012 23.1397C5.88749 22.9671 6.13687 22.7858 6.46066 22.6497C6.53903 22.6172 8.05587 22.071 9.82682 21.4352C11.6002 20.8011 13.0552 20.2786 13.0592 20.2731C13.0632 20.2691 13.0647 19.4553 13.0632 18.4657L13.0576 16.6655L9.75557 17.8411ZM27.6599 18.2409C25.8462 18.3406 23.7839 18.7238 22.0644 19.2772L21.6084 19.4244V21.288C21.6084 22.481 21.6139 23.1516 21.6274 23.1516C21.6448 23.1516 22.2979 22.922 26.185 21.5524C28.3336 20.794 28.4278 20.7615 28.7033 20.6911C30.1054 20.3237 31.8573 20.4116 32.3608 20.8747C32.5065 21.0085 32.5389 21.1312 32.4661 21.2753C32.3759 21.4519 32.1882 21.6007 31.8708 21.7519C31.7615 21.8034 30.8749 22.1311 29.9003 22.4779C28.9258 22.8262 27.363 23.382 26.4249 23.7168C23.5812 24.7302 21.6781 25.4078 21.6432 25.4213C21.6108 25.4348 21.6084 25.5385 21.6084 27.235C21.6084 28.941 21.61 29.0353 21.6432 29.0218C21.6812 29.0068 26.9514 27.1147 33.2594 24.8489C34.3321 24.4618 35.3312 24.0945 35.4808 24.0311C36.3002 23.6788 37.053 23.2118 37.4631 22.8056C37.8415 22.4288 38.0007 22.0955 38.0007 21.6862C38.0007 21.2492 37.8376 20.9167 37.4338 20.5296C37.0894 20.1963 36.4743 19.8329 35.837 19.5835C35.5077 19.4553 34.4334 19.088 34.0946 18.9882C32.8287 18.6169 31.5399 18.3945 29.9201 18.2662C29.6707 18.2464 27.9164 18.2274 27.6599 18.2409Z" fill="url(#paint0_linear_1482_38287)"/>
<defs>
<linearGradient id="paint0_linear_1482_38287" x1="19.0005" y1="3" x2="22.0005" y2="28" gradientUnits="userSpaceOnUse">
<stop stop-color="#EB4337"/>
<stop offset="1" stop-color="white"/>
</linearGradient>
</defs>
</svg>
